<svg width="11" height="18" viewBox="0 0 11 18" fill="none" xmlns="http://www.w3.org/2000/svg">
    <path d="M7.752 8.90534L1.152 2.30534C1.02465 2.18235 0.923077 2.03522 0.853198 1.87255C0.78332 1.70988 0.746538 1.53492 0.745 1.35788C0.743461 1.18084 0.777197 1.00527 0.844238 0.841406C0.911279 0.677544 1.01028 0.528673 1.13547 0.403484C1.26066 0.278294 1.40953 0.179289 1.57339 0.112247C1.73726 0.045208 1.91283 0.0114708 2.08987 0.01301C2.26691 0.0145493 2.44187 0.0513306 2.60454 0.121208C2.76721 0.191088 2.91434 0.292664 3.03733 0.42001L10.58 7.96268C10.83 8.21272 10.9704 8.55179 10.9704 8.90534C10.9704 9.2589 10.83 9.59797 10.58 9.84801L3.03733 17.3907C2.91434 17.518 2.76721 17.6196 2.60454 17.6895C2.44187 17.7594 2.26691 17.7961 2.08987 17.7977C1.91283 17.7992 1.73726 17.7655 1.57339 17.6984C1.40953 17.6314 1.26066 17.5324 1.13547 17.4072C1.01028 17.282 0.911279 17.1331 0.844238 16.9693C0.777197 16.8054 0.743461 16.6298 0.745 16.4528C0.746538 16.2758 0.78332 16.1008 0.853198 15.9381C0.923077 15.7755 1.02465 15.6283 1.152 15.5053L7.752 8.90534Z" fill="#1C1C1C"/>
</svg>
