<svg width="24" height="24" viewBox="0 0 24 24" fill="none" xmlns="http://www.w3.org/2000/svg">
    <path d="M24 9.7956C23.6088 10.0155 23.2832 10.3356 23.0567 10.7231C22.8302 11.1105 22.7109 11.5512 22.7112 12C22.7112 12.9468 23.2308 13.7712 24 14.2044L23.1396 17.0916C22.6745 17.0116 22.1964 17.0635 21.7593 17.2413C21.3222 17.4192 20.9436 17.7159 20.6666 18.0979C20.3895 18.4799 20.225 18.9319 20.1917 19.4026C20.1583 19.8733 20.2575 20.344 20.478 20.7612L18.0036 22.6836C17.676 22.4151 17.2861 22.2332 16.8698 22.1549C16.4535 22.0766 16.0242 22.1042 15.6214 22.2354C15.2186 22.3665 14.8553 22.5968 14.5649 22.9052C14.2745 23.2136 14.0663 23.5901 13.9596 24L10.0116 23.9904C9.9037 23.5824 9.69526 23.208 9.40534 22.9014C9.11542 22.5948 8.75327 22.3657 8.35198 22.2351C7.9507 22.1045 7.52309 22.0766 7.10824 22.1539C6.69338 22.2312 6.30452 22.4113 5.9772 22.6776L3.5052 20.7396C3.71949 20.3241 3.81426 19.8573 3.77897 19.3911C3.74368 18.9249 3.57971 18.4777 3.30531 18.0992C3.03091 17.7207 2.65685 17.4257 2.22477 17.2472C1.79269 17.0687 1.31955 17.0136 0.858 17.088L0 14.19C0.383939 13.9678 0.702617 13.6484 0.924004 13.264C1.14539 12.8795 1.26169 12.4436 1.2612 12C1.2612 11.064 0.756 10.248 0 9.81L0.858 6.912C1.31964 6.9867 1.79295 6.93178 2.22522 6.75336C2.65749 6.57495 3.03174 6.28004 3.3063 5.90148C3.58086 5.52292 3.74494 5.07557 3.78027 4.60927C3.8156 4.14296 3.72079 3.676 3.5064 3.2604L5.976 1.3224C6.30332 1.58874 6.69218 1.76879 7.10704 1.84609C7.52189 1.9234 7.9495 1.89548 8.35079 1.7649C8.75207 1.63432 9.11422 1.40525 9.40414 1.09861C9.69406 0.791978 9.9025 0.417565 10.0104 0.0096L13.9608 0C14.0675 0.40993 14.2757 0.786418 14.5661 1.09479C14.8565 1.40317 15.2198 1.63352 15.6226 1.76464C16.0254 1.89576 16.4547 1.92342 16.871 1.84509C17.2873 1.76676 17.6772 1.58495 18.0048 1.3164L20.4768 3.24C20.2563 3.65723 20.1571 4.12787 20.1905 4.59858C20.2238 5.0693 20.3883 5.52127 20.6654 5.90326C20.9424 6.28526 21.321 6.582 21.7581 6.75987C22.1952 6.93773 22.6733 6.9896 23.1384 6.9096L24 9.7944V9.7956ZM17.7876 4.416C17.7876 4.3404 17.79 4.266 17.7936 4.1904L17.6976 4.116C16.7629 4.37063 15.7739 4.34387 14.8543 4.03906C13.9347 3.73424 13.1255 3.16493 12.528 2.4024L11.4432 2.4048C10.8479 3.16409 10.0425 3.73159 9.12717 4.0367C8.21184 4.34181 7.22701 4.37105 6.2952 4.1208L6.1812 4.212C6.22639 5.29521 5.91323 6.36311 5.29019 7.25037C4.66716 8.13762 3.76902 8.79475 2.7348 9.12C3.33818 9.95854 3.66229 10.9657 3.6612 11.9988C3.6612 13.0572 3.3252 14.0568 2.7348 14.8788C3.76902 15.2041 4.66716 15.8612 5.29019 16.7484C5.91323 17.6357 6.22639 18.7036 6.1812 19.7868L6.2964 19.8768C7.22807 19.6274 8.21245 19.6571 9.1274 19.9622C10.0424 20.2672 10.8476 20.8342 11.4432 21.5928L12.528 21.5952C13.1251 20.8325 13.9341 20.2631 14.8535 19.9582C15.773 19.6534 16.7619 19.6267 17.6964 19.8816L17.7924 19.8072C17.743 18.7206 18.0543 17.6482 18.6779 16.757C19.3014 15.8658 20.2023 15.2059 21.24 14.88C20.6361 14.0412 20.3116 13.0336 20.3124 12C20.3124 10.9416 20.6496 9.9408 21.24 9.12C20.2392 8.80537 19.3648 8.17965 18.7441 7.33386C18.1235 6.48807 17.7888 5.46631 17.7888 4.4172L17.7876 4.416ZM12 16.8C10.727 16.8 9.50606 16.2943 8.60589 15.3941C7.70571 14.4939 7.2 13.273 7.2 12C7.2 10.727 7.70571 9.50606 8.60589 8.60589C9.50606 7.70571 10.727 7.2 12 7.2C13.273 7.2 14.4939 7.70571 15.3941 8.60589C16.2943 9.50606 16.8 10.727 16.8 12C16.8 13.273 16.2943 14.4939 15.3941 15.3941C14.4939 16.2943 13.273 16.8 12 16.8ZM12 14.4C12.6365 14.4 13.247 14.1471 13.6971 13.6971C14.1471 13.247 14.4 12.6365 14.4 12C14.4 11.3635 14.1471 10.753 13.6971 10.3029C13.247 9.85286 12.6365 9.6 12 9.6C11.3635 9.6 10.753 9.85286 10.3029 10.3029C9.85286 10.753 9.6 11.3635 9.6 12C9.6 12.6365 9.85286 13.247 10.3029 13.6971C10.753 14.1471 11.3635 14.4 12 14.4Z" fill="#1C1C1C"/>
</svg>
